G04 PROTEUS GERBER X2 FILE*
%TF.GenerationSoftware,Labcenter,Proteus,8.9-SP2-Build28501*%
%TF.CreationDate,2020-07-14T17:10:42+00:00*%
%TF.FileFunction,AssemblyDrawing,Top*%
%TF.FilePolarity,Positive*%
%TF.Part,Single*%
%TF.SameCoordinates,{7d90a529-71f2-4dae-951e-d5efde4002f7}*%
%FSLAX45Y45*%
%MOMM*%
G01*
%TA.AperFunction,Profile*%
%ADD18C,0.203200*%
%TA.AperFunction,Material*%
%ADD19C,0.203200*%
%ADD27C,0.355400*%
%ADD71C,0.508000*%
%ADD28C,0.342050*%
%ADD20C,0.152400*%
%ADD29C,0.558800*%
%ADD72C,0.107240*%
%ADD73C,0.095560*%
%ADD30C,0.093980*%
%ADD31C,1.219200*%
%ADD32C,0.151550*%
%ADD33C,0.129900*%
%TD.AperFunction*%
D18*
X-5054600Y-1854200D02*
X+2019300Y-1854200D01*
X+2019300Y+3898900D01*
X-5054600Y+3898900D01*
X-5054600Y-1854200D01*
D19*
X-4470160Y-32360D02*
X+150160Y-32360D01*
X+150160Y+1788760D01*
X-4470160Y+1788760D01*
X-4470160Y-32360D01*
D27*
X-3865962Y+771577D02*
X-3865962Y+913741D01*
X-3794881Y+984823D01*
X-3723799Y+984823D01*
X-3652717Y+913741D01*
X-3652717Y+771577D01*
X-3865962Y+842659D02*
X-3652717Y+842659D01*
X-3581635Y+771577D02*
X-3581635Y+984823D01*
X-3403931Y+984823D01*
X-3368390Y+949282D01*
X-3368390Y+913741D01*
X-3403931Y+878200D01*
X-3581635Y+878200D01*
X-3403931Y+878200D02*
X-3368390Y+842659D01*
X-3368390Y+771577D01*
X-3297308Y+771577D02*
X-3297308Y+984823D01*
X-3155145Y+984823D01*
X-3084063Y+913741D01*
X-3084063Y+842659D01*
X-3155145Y+771577D01*
X-3297308Y+771577D01*
X-3012981Y+984823D02*
X-3012981Y+807118D01*
X-2977441Y+771577D01*
X-2835277Y+771577D01*
X-2799736Y+807118D01*
X-2799736Y+984823D01*
X-2693114Y+984823D02*
X-2550950Y+984823D01*
X-2622032Y+984823D02*
X-2622032Y+771577D01*
X-2693114Y+771577D02*
X-2550950Y+771577D01*
X-2444327Y+771577D02*
X-2444327Y+984823D01*
X-2231082Y+771577D01*
X-2231082Y+984823D01*
X-2160000Y+913741D02*
X-2088919Y+984823D01*
X-2017837Y+984823D01*
X-1946755Y+913741D01*
X-1946755Y+842659D01*
X-2017837Y+771577D01*
X-2088919Y+771577D01*
X-2160000Y+842659D01*
X-2160000Y+913741D01*
X-1591346Y+771577D02*
X-1591346Y+984823D01*
X-1378101Y+771577D01*
X-1378101Y+984823D01*
X-1307019Y+771577D02*
X-1307019Y+913741D01*
X-1235938Y+984823D01*
X-1164856Y+984823D01*
X-1093774Y+913741D01*
X-1093774Y+771577D01*
X-1307019Y+842659D02*
X-1093774Y+842659D01*
X-1022692Y+771577D02*
X-1022692Y+984823D01*
X-809447Y+771577D01*
X-809447Y+984823D01*
X-738365Y+913741D02*
X-667284Y+984823D01*
X-596202Y+984823D01*
X-525120Y+913741D01*
X-525120Y+842659D01*
X-596202Y+771577D01*
X-667284Y+771577D01*
X-738365Y+842659D01*
X-738365Y+913741D01*
D19*
X-2550160Y+2603500D02*
X-497840Y+2603500D01*
X-497840Y+3492500D01*
X-2550160Y+3492500D01*
X-2550160Y+2603500D01*
D71*
X-2413000Y+2667000D02*
X-2413000Y+2667000D01*
D28*
X-2208105Y+3150616D02*
X-2208105Y+2945384D01*
X-2002874Y+2945384D01*
X-1900258Y+3116411D02*
X-1866053Y+3150616D01*
X-1763437Y+3150616D01*
X-1729232Y+3116411D01*
X-1729232Y+3082205D01*
X-1763437Y+3048000D01*
X-1866053Y+3048000D01*
X-1900258Y+3013795D01*
X-1900258Y+2945384D01*
X-1729232Y+2945384D01*
X-1455590Y+3082205D02*
X-1489795Y+3048000D01*
X-1592411Y+3048000D01*
X-1626616Y+3082205D01*
X-1626616Y+3116411D01*
X-1592411Y+3150616D01*
X-1489795Y+3150616D01*
X-1455590Y+3116411D01*
X-1455590Y+2979589D01*
X-1489795Y+2945384D01*
X-1592411Y+2945384D01*
X-1352974Y+3116411D02*
X-1318769Y+3150616D01*
X-1216153Y+3150616D01*
X-1181948Y+3116411D01*
X-1181948Y+3082205D01*
X-1216153Y+3048000D01*
X-1181948Y+3013795D01*
X-1181948Y+2979589D01*
X-1216153Y+2945384D01*
X-1318769Y+2945384D01*
X-1352974Y+2979589D01*
X-1284564Y+3048000D02*
X-1216153Y+3048000D01*
X-1113537Y+2945384D02*
X-1113537Y+3150616D01*
X-976716Y+3150616D01*
X-908306Y+3082205D01*
X-908306Y+3013795D01*
X-976716Y+2945384D01*
X-1113537Y+2945384D01*
D20*
X-3616020Y+2724480D02*
X-3616020Y+3174060D01*
X-4565980Y+3174060D01*
X-4565980Y+2724480D01*
X-3616020Y+2724480D01*
X-3616020Y+3174060D01*
X-4565980Y+3174060D01*
X-4565980Y+2724480D01*
X-3616020Y+2724480D01*
D29*
X-3791000Y+3048000D02*
X-3791000Y+3048000D01*
D72*
X-4434180Y+2917096D02*
X-4434180Y+2981443D01*
X-4369834Y+2917096D01*
X-4369834Y+2981443D01*
X-4348385Y+2917096D02*
X-4348385Y+2981443D01*
X-4294764Y+2981443D01*
X-4284039Y+2970718D01*
X-4284039Y+2959994D01*
X-4294764Y+2949270D01*
X-4348385Y+2949270D01*
X-4294764Y+2949270D02*
X-4284039Y+2938545D01*
X-4284039Y+2917096D01*
X-4262590Y+2917096D02*
X-4262590Y+2981443D01*
X-4198244Y+2981443D01*
X-4262590Y+2949270D02*
X-4219693Y+2949270D01*
X-4166071Y+2970718D02*
X-4155347Y+2981443D01*
X-4123174Y+2981443D01*
X-4112449Y+2970718D01*
X-4112449Y+2959994D01*
X-4123174Y+2949270D01*
X-4155347Y+2949270D01*
X-4166071Y+2938545D01*
X-4166071Y+2917096D01*
X-4112449Y+2917096D01*
X-4026654Y+2938545D02*
X-4091000Y+2938545D01*
X-4048103Y+2981443D01*
X-4048103Y+2917096D01*
X-4005205Y+2981443D02*
X-4005205Y+2917096D01*
X-3940859Y+2917096D01*
X-3919410Y+2927821D02*
X-3919410Y+2970718D01*
X-3908686Y+2981443D01*
X-3865789Y+2981443D01*
X-3855064Y+2970718D01*
X-3855064Y+2927821D01*
X-3865789Y+2917096D01*
X-3908686Y+2917096D01*
X-3919410Y+2927821D01*
X-3919410Y+2917096D02*
X-3855064Y+2981443D01*
X-3812167Y+2959994D02*
X-3790718Y+2981443D01*
X-3790718Y+2917096D01*
D20*
X-1263650Y-1271600D02*
X-1263650Y-1523060D01*
X-514350Y-1523060D01*
X-514350Y-1271600D01*
X-1263650Y-1271600D01*
X-1263650Y-1523060D01*
X-514350Y-1523060D01*
X-514350Y-1271600D01*
X-1263650Y-1271600D01*
D29*
X-1089000Y-1397000D02*
X-1089000Y-1397000D01*
D73*
X-1156585Y-1416443D02*
X-1147029Y-1426000D01*
X-1108802Y-1426000D01*
X-1099246Y-1416443D01*
X-1099246Y-1406887D01*
X-1108802Y-1397330D01*
X-1147029Y-1397330D01*
X-1156585Y-1387773D01*
X-1156585Y-1378217D01*
X-1147029Y-1368660D01*
X-1108802Y-1368660D01*
X-1099246Y-1378217D01*
X-1022793Y-1426000D02*
X-1080132Y-1426000D01*
X-1080132Y-1368660D01*
X-1022793Y-1368660D01*
X-1080132Y-1397330D02*
X-1041906Y-1397330D01*
X-1003679Y-1426000D02*
X-1003679Y-1368660D01*
X-955896Y-1368660D01*
X-946340Y-1378217D01*
X-946340Y-1387773D01*
X-955896Y-1397330D01*
X-1003679Y-1397330D01*
X-955896Y-1397330D02*
X-946340Y-1406887D01*
X-946340Y-1426000D01*
X-927226Y-1368660D02*
X-927226Y-1397330D01*
X-898557Y-1426000D01*
X-869887Y-1397330D01*
X-869887Y-1368660D01*
X-850773Y-1387773D02*
X-831660Y-1368660D01*
X-812547Y-1368660D01*
X-793434Y-1387773D01*
X-793434Y-1406887D01*
X-812547Y-1426000D01*
X-831660Y-1426000D01*
X-850773Y-1406887D01*
X-850773Y-1387773D01*
X-678754Y-1387773D02*
X-659641Y-1368660D01*
X-659641Y-1426000D01*
D20*
X+1649400Y+1390650D02*
X+1397940Y+1390650D01*
X+1397940Y+641350D01*
X+1649400Y+641350D01*
X+1649400Y+1390650D01*
X+1397940Y+1390650D01*
X+1397940Y+641350D01*
X+1649400Y+641350D01*
X+1649400Y+1390650D01*
D29*
X+1524000Y+1216000D02*
X+1524000Y+1216000D01*
D73*
X+1542783Y+748415D02*
X+1552340Y+757971D01*
X+1552340Y+796198D01*
X+1542783Y+805754D01*
X+1533227Y+805754D01*
X+1523670Y+796198D01*
X+1523670Y+757971D01*
X+1514113Y+748415D01*
X+1504557Y+748415D01*
X+1495000Y+757971D01*
X+1495000Y+796198D01*
X+1504557Y+805754D01*
X+1552340Y+882207D02*
X+1552340Y+824868D01*
X+1495000Y+824868D01*
X+1495000Y+882207D01*
X+1523670Y+824868D02*
X+1523670Y+863094D01*
X+1552340Y+901321D02*
X+1495000Y+901321D01*
X+1495000Y+949104D01*
X+1504557Y+958660D01*
X+1514113Y+958660D01*
X+1523670Y+949104D01*
X+1523670Y+901321D01*
X+1523670Y+949104D02*
X+1533227Y+958660D01*
X+1552340Y+958660D01*
X+1495000Y+977774D02*
X+1523670Y+977774D01*
X+1552340Y+1006443D01*
X+1523670Y+1035113D01*
X+1495000Y+1035113D01*
X+1514113Y+1054227D02*
X+1495000Y+1073340D01*
X+1495000Y+1092453D01*
X+1514113Y+1111566D01*
X+1533227Y+1111566D01*
X+1552340Y+1092453D01*
X+1552340Y+1073340D01*
X+1533227Y+1054227D01*
X+1514113Y+1054227D01*
X+1504557Y+1216689D02*
X+1495000Y+1226246D01*
X+1495000Y+1254916D01*
X+1504557Y+1264472D01*
X+1514113Y+1264472D01*
X+1523670Y+1254916D01*
X+1523670Y+1226246D01*
X+1533227Y+1216689D01*
X+1552340Y+1216689D01*
X+1552340Y+1264472D01*
D20*
X-3924320Y-624600D02*
X-3924320Y-876060D01*
X-3375680Y-876060D01*
X-3375680Y-624600D01*
X-3924320Y-624600D01*
X-3924320Y-876060D01*
X-3375680Y-876060D01*
X-3375680Y-624600D01*
X-3924320Y-624600D01*
D29*
X-3750000Y-750000D02*
X-3750000Y-750000D01*
D30*
X-3837960Y-778524D02*
X-3837960Y-722136D01*
X-3790970Y-722136D01*
X-3781572Y-731534D01*
X-3781572Y-740932D01*
X-3790970Y-750330D01*
X-3837960Y-750330D01*
X-3790970Y-750330D02*
X-3781572Y-759728D01*
X-3781572Y-778524D01*
X-3706388Y-778524D02*
X-3762776Y-778524D01*
X-3762776Y-722136D01*
X-3706388Y-722136D01*
X-3762776Y-750330D02*
X-3725184Y-750330D01*
X-3687592Y-769126D02*
X-3678194Y-778524D01*
X-3640602Y-778524D01*
X-3631204Y-769126D01*
X-3631204Y-759728D01*
X-3640602Y-750330D01*
X-3678194Y-750330D01*
X-3687592Y-740932D01*
X-3687592Y-731534D01*
X-3678194Y-722136D01*
X-3640602Y-722136D01*
X-3631204Y-731534D01*
X-3556020Y-778524D02*
X-3612408Y-778524D01*
X-3612408Y-722136D01*
X-3556020Y-722136D01*
X-3612408Y-750330D02*
X-3574816Y-750330D01*
X-3537224Y-722136D02*
X-3480836Y-722136D01*
X-3509030Y-722136D02*
X-3509030Y-778524D01*
D19*
X+748540Y-1547180D02*
X+1657860Y-1547180D01*
X+1657860Y-764860D01*
X+748540Y-764860D01*
X+748540Y-1547180D01*
D31*
X+1000000Y-1250000D02*
X+1000000Y-1250000D01*
D32*
X+900095Y-1201486D02*
X+900095Y-1110554D01*
X+975871Y-1110554D01*
X+991026Y-1125709D01*
X+991026Y-1140865D01*
X+975871Y-1156020D01*
X+900095Y-1156020D01*
X+1021337Y-1140865D02*
X+1051647Y-1110554D01*
X+1081958Y-1110554D01*
X+1112268Y-1140865D01*
X+1112268Y-1171175D01*
X+1081958Y-1201486D01*
X+1051647Y-1201486D01*
X+1021337Y-1171175D01*
X+1021337Y-1140865D01*
X+1142579Y-1110554D02*
X+1142579Y-1201486D01*
X+1188044Y-1156020D01*
X+1233510Y-1201486D01*
X+1233510Y-1110554D01*
X+1354752Y-1201486D02*
X+1263821Y-1201486D01*
X+1263821Y-1110554D01*
X+1354752Y-1110554D01*
X+1263821Y-1156020D02*
X+1324442Y-1156020D01*
X+1385063Y-1201486D02*
X+1385063Y-1110554D01*
X+1460839Y-1110554D01*
X+1475994Y-1125709D01*
X+1475994Y-1140865D01*
X+1460839Y-1156020D01*
X+1385063Y-1156020D01*
X+1460839Y-1156020D02*
X+1475994Y-1171175D01*
X+1475994Y-1201486D01*
D19*
X+952820Y+2842140D02*
X+1735140Y+2842140D01*
X+1735140Y+3751460D01*
X+952820Y+3751460D01*
X+952820Y+2842140D01*
D31*
X+1250000Y+3500000D02*
X+1250000Y+3500000D01*
D33*
X+1382951Y+2985037D02*
X+1305010Y+2985037D01*
X+1343980Y+3024007D01*
X+1305010Y+3062977D01*
X+1382951Y+3062977D01*
X+1330990Y+3088958D02*
X+1305010Y+3114938D01*
X+1305010Y+3140918D01*
X+1330990Y+3166898D01*
X+1356971Y+3166898D01*
X+1382951Y+3140918D01*
X+1382951Y+3114938D01*
X+1356971Y+3088958D01*
X+1330990Y+3088958D01*
X+1305010Y+3192879D02*
X+1305010Y+3270819D01*
X+1305010Y+3231849D02*
X+1382951Y+3231849D01*
X+1330990Y+3296800D02*
X+1305010Y+3322780D01*
X+1305010Y+3348760D01*
X+1330990Y+3374740D01*
X+1356971Y+3374740D01*
X+1382951Y+3348760D01*
X+1382951Y+3322780D01*
X+1356971Y+3296800D01*
X+1330990Y+3296800D01*
X+1382951Y+3400721D02*
X+1305010Y+3400721D01*
X+1305010Y+3465671D01*
X+1318000Y+3478661D01*
X+1330990Y+3478661D01*
X+1343980Y+3465671D01*
X+1343980Y+3400721D01*
X+1343980Y+3465671D02*
X+1356971Y+3478661D01*
X+1382951Y+3478661D01*
X+1330990Y+3530622D02*
X+1305010Y+3556602D01*
X+1382951Y+3556602D01*
D19*
X+952820Y+1592140D02*
X+1735140Y+1592140D01*
X+1735140Y+2501460D01*
X+952820Y+2501460D01*
X+952820Y+1592140D01*
D31*
X+1250000Y+2250000D02*
X+1250000Y+2250000D01*
D33*
X+1382951Y+1735037D02*
X+1305010Y+1735037D01*
X+1343980Y+1774007D01*
X+1305010Y+1812977D01*
X+1382951Y+1812977D01*
X+1330990Y+1838958D02*
X+1305010Y+1864938D01*
X+1305010Y+1890918D01*
X+1330990Y+1916898D01*
X+1356971Y+1916898D01*
X+1382951Y+1890918D01*
X+1382951Y+1864938D01*
X+1356971Y+1838958D01*
X+1330990Y+1838958D01*
X+1305010Y+1942879D02*
X+1305010Y+2020819D01*
X+1305010Y+1981849D02*
X+1382951Y+1981849D01*
X+1330990Y+2046800D02*
X+1305010Y+2072780D01*
X+1305010Y+2098760D01*
X+1330990Y+2124740D01*
X+1356971Y+2124740D01*
X+1382951Y+2098760D01*
X+1382951Y+2072780D01*
X+1356971Y+2046800D01*
X+1330990Y+2046800D01*
X+1382951Y+2150721D02*
X+1305010Y+2150721D01*
X+1305010Y+2215671D01*
X+1318000Y+2228661D01*
X+1330990Y+2228661D01*
X+1343980Y+2215671D01*
X+1343980Y+2150721D01*
X+1343980Y+2215671D02*
X+1356971Y+2228661D01*
X+1382951Y+2228661D01*
X+1318000Y+2267632D02*
X+1305010Y+2280622D01*
X+1305010Y+2319592D01*
X+1318000Y+2332582D01*
X+1330990Y+2332582D01*
X+1343980Y+2319592D01*
X+1343980Y+2280622D01*
X+1356971Y+2267632D01*
X+1382951Y+2267632D01*
X+1382951Y+2332582D01*
M02*
