G04 PROTEUS GERBER X2 FILE*
%TF.GenerationSoftware,Labcenter,Proteus,8.9-SP2-Build28501*%
%TF.CreationDate,2020-07-14T17:10:42+00:00*%
%TF.FileFunction,Copper,L1,Top*%
%TF.FilePolarity,Positive*%
%TF.Part,Single*%
%TF.SameCoordinates,{7d90a529-71f2-4dae-951e-d5efde4002f7}*%
%FSLAX45Y45*%
%MOMM*%
G01*
%TA.AperFunction,Conductor*%
%ADD10C,0.762000*%
%ADD11C,1.016000*%
%TA.AperFunction,ViaPad*%
%ADD12C,0.762000*%
%TA.AperFunction,ComponentPad*%
%ADD13R,1.905000X1.905000*%
%TA.AperFunction,ComponentPad*%
%ADD14R,1.270000X1.270000*%
%ADD15C,1.270000*%
%TA.AperFunction,WasherPad*%
%ADD16C,1.397000*%
%TA.AperFunction,ComponentPad*%
%ADD17C,3.048000*%
%TA.AperFunction,Profile*%
%ADD18C,0.203200*%
%TD.AperFunction*%
D10*
X-3556000Y+1143000D02*
X-4000500Y+1143000D01*
X-4127500Y+1270000D01*
X-4127500Y+2095500D01*
X-3791000Y+2432000D01*
X-3791000Y+2848000D01*
X-1016000Y+952500D02*
X-4572000Y+952500D01*
X-4699000Y+1079500D01*
X-4699000Y+3302000D01*
X-4572000Y+3429000D01*
X-2413000Y+3429000D01*
X-1016000Y+952500D02*
X-952500Y+1016000D01*
X+1524000Y+1016000D01*
X-1016000Y+127000D02*
X-1016000Y+952500D01*
X-762000Y+127000D02*
X-762000Y-63500D01*
X-889000Y-190500D01*
X-3810000Y-190500D01*
X-3937000Y-317500D01*
X-3937000Y-889000D01*
X-3810000Y-1016000D01*
X-3677000Y-1016000D01*
X-3550000Y-889000D01*
X-3550000Y-750000D01*
X-635000Y+317500D02*
X-381000Y+317500D01*
X-635000Y+444500D02*
X-63500Y+444500D01*
X+63500Y+317500D01*
X+63500Y-244500D01*
X-1089000Y-1397000D01*
X-889000Y+2667000D02*
X-1341452Y+2214548D01*
X-2921000Y+2214548D01*
X-3048000Y+2087548D01*
X-3048000Y+1631200D01*
X+1524000Y+1216000D02*
X-381000Y+1216000D01*
X-508000Y+1343000D01*
X-508000Y+1631200D01*
X-1905000Y+1841500D02*
X-1892740Y+1853760D01*
X+1250000Y+1853760D01*
X-317500Y+2286000D02*
X-324639Y+2286000D01*
X-324639Y+2250000D01*
X+1250000Y+2250000D01*
X+1250000Y+3103760D02*
X-817760Y+3103760D01*
X-1143000Y+3429000D01*
X+1250000Y+3500000D02*
X+1003500Y+3746500D01*
X-1587500Y+3746500D01*
X-1905000Y+3429000D01*
D11*
X-508000Y+127000D02*
X-508000Y-444500D01*
X-635000Y-571500D01*
X-3680150Y-571500D01*
X-3750000Y-641350D01*
X-3750000Y-750000D01*
X-1651000Y+3429000D02*
X-2032000Y+3048000D01*
X-3791000Y+3048000D01*
X-689000Y-1397000D02*
X+571500Y-1397000D01*
X+698500Y-1524000D01*
X+1122240Y-1524000D01*
X+1396240Y-1250000D01*
X-1651000Y+2667000D02*
X-1397000Y+2667000D01*
X-1397000Y+3429000D02*
X-1651000Y+3429000D01*
D12*
X-3556000Y+1143000D03*
X-381000Y+317500D03*
X-635000Y+317500D03*
X-635000Y+444500D03*
X-1905000Y+1841500D03*
X-317500Y+2286000D03*
D13*
X-3556000Y+127000D03*
X-1016000Y+127000D03*
X-3048000Y+127000D03*
X-2794000Y+127000D03*
X-2540000Y+127000D03*
X-2286000Y+127000D03*
X-2032000Y+127000D03*
X-1778000Y+127000D03*
X-1524000Y+127000D03*
X-1270000Y+127000D03*
X-3302000Y+127000D03*
X-1270000Y+1631200D03*
X-1524000Y+1631200D03*
X-1778000Y+1631200D03*
X-2032000Y+1631200D03*
X-2286000Y+1631200D03*
X-2540000Y+1631200D03*
X-2794000Y+1631200D03*
X-3048000Y+1631200D03*
X-3302000Y+1631200D03*
X-3556000Y+1631200D03*
X-3810000Y+1631200D03*
X-3810000Y+127000D03*
X-508000Y+127000D03*
X-1016000Y+1631200D03*
X-762000Y+127000D03*
X-762000Y+1631200D03*
X-508000Y+1631200D03*
X-254000Y+1631200D03*
X-254000Y+127000D03*
D14*
X-2413000Y+2667000D03*
D15*
X-2159000Y+2667000D03*
X-1905000Y+2667000D03*
X-1651000Y+2667000D03*
X-1397000Y+2667000D03*
X-1143000Y+2667000D03*
X-889000Y+2667000D03*
X-635000Y+2667000D03*
X-635000Y+3429000D03*
X-889000Y+3429000D03*
X-1143000Y+3429000D03*
X-1397000Y+3429000D03*
X-1651000Y+3429000D03*
X-1905000Y+3429000D03*
X-2159000Y+3429000D03*
X-2413000Y+3429000D03*
D16*
X-3791000Y+3048000D03*
X-3791000Y+2848000D03*
X-3991000Y+3048000D03*
X-3991000Y+2848000D03*
X-4191000Y+3048000D03*
X-4191000Y+2848000D03*
X-4391000Y+3048000D03*
X-4391000Y+2848000D03*
X-1089000Y-1397000D03*
X-889000Y-1397000D03*
X-689000Y-1397000D03*
X+1524000Y+1216000D03*
X+1524000Y+1016000D03*
X+1524000Y+816000D03*
X-3750000Y-750000D03*
X-3550000Y-750000D03*
D17*
X+1000000Y-1250000D03*
X+1396240Y-1250000D03*
X+1250000Y+3500000D03*
X+1250000Y+3103760D03*
X+1250000Y+2250000D03*
X+1250000Y+1853760D03*
D18*
X-5054600Y-1854200D02*
X+2019300Y-1854200D01*
X+2019300Y+3898900D01*
X-5054600Y+3898900D01*
X-5054600Y-1854200D01*
M02*
