G04 PROTEUS GERBER X2 FILE*
%TF.GenerationSoftware,Labcenter,Proteus,8.9-SP2-Build28501*%
%TF.CreationDate,2020-07-14T17:10:42+00:00*%
%TF.FileFunction,Soldermask,Bot*%
%TF.FilePolarity,Negative*%
%TF.Part,Single*%
%TF.SameCoordinates,{7d90a529-71f2-4dae-951e-d5efde4002f7}*%
%FSLAX45Y45*%
%MOMM*%
G01*
%TA.AperFunction,Material*%
%ADD21C,1.016000*%
%AMPPAD014*
4,1,36,
-1.079500,-0.952500,
-1.079500,0.952500,
-1.076970,0.978470,
-1.069700,1.002480,
-1.058150,1.024080,
-1.042790,1.042790,
-1.024070,1.058150,
-1.002480,1.069700,
-0.978470,1.076970,
-0.952500,1.079500,
0.952500,1.079500,
0.978470,1.076970,
1.002480,1.069700,
1.024070,1.058150,
1.042790,1.042790,
1.058150,1.024080,
1.069700,1.002480,
1.076970,0.978470,
1.079500,0.952500,
1.079500,-0.952500,
1.076970,-0.978470,
1.069700,-1.002480,
1.058150,-1.024080,
1.042790,-1.042790,
1.024070,-1.058150,
1.002480,-1.069700,
0.978470,-1.076970,
0.952500,-1.079500,
-0.952500,-1.079500,
-0.978470,-1.076970,
-1.002480,-1.069700,
-1.024070,-1.058150,
-1.042790,-1.042790,
-1.058150,-1.024080,
-1.069700,-1.002480,
-1.076970,-0.978470,
-1.079500,-0.952500,
0*%
%TA.AperFunction,Material*%
%ADD22PPAD014*%
%AMPPAD015*
4,1,36,
-0.635000,0.762000,
0.635000,0.762000,
0.660970,0.759470,
0.684980,0.752200,
0.706580,0.740650,
0.725290,0.725290,
0.740650,0.706570,
0.752200,0.684980,
0.759470,0.660970,
0.762000,0.635000,
0.762000,-0.635000,
0.759470,-0.660970,
0.752200,-0.684980,
0.740650,-0.706570,
0.725290,-0.725290,
0.706580,-0.740650,
0.684980,-0.752200,
0.660970,-0.759470,
0.635000,-0.762000,
-0.635000,-0.762000,
-0.660970,-0.759470,
-0.684980,-0.752200,
-0.706580,-0.740650,
-0.725290,-0.725290,
-0.740650,-0.706570,
-0.752200,-0.684980,
-0.759470,-0.660970,
-0.762000,-0.635000,
-0.762000,0.635000,
-0.759470,0.660970,
-0.752200,0.684980,
-0.740650,0.706570,
-0.725290,0.725290,
-0.706580,0.740650,
-0.684980,0.752200,
-0.660970,0.759470,
-0.635000,0.762000,
0*%
%TA.AperFunction,Material*%
%ADD23PPAD015*%
%ADD24C,1.524000*%
%TA.AperFunction,Material*%
%ADD25C,1.651000*%
%TA.AperFunction,Material*%
%ADD26C,3.302000*%
%TA.AperFunction,Profile*%
%ADD18C,0.203200*%
%TD.AperFunction*%
D21*
X-3556000Y+1143000D03*
X-381000Y+317500D03*
X-635000Y+317500D03*
X-635000Y+444500D03*
X-1905000Y+1841500D03*
X-317500Y+2286000D03*
D22*
X-3556000Y+127000D03*
X-1016000Y+127000D03*
X-3048000Y+127000D03*
X-2794000Y+127000D03*
X-2540000Y+127000D03*
X-2286000Y+127000D03*
X-2032000Y+127000D03*
X-1778000Y+127000D03*
X-1524000Y+127000D03*
X-1270000Y+127000D03*
X-3302000Y+127000D03*
X-1270000Y+1631200D03*
X-1524000Y+1631200D03*
X-1778000Y+1631200D03*
X-2032000Y+1631200D03*
X-2286000Y+1631200D03*
X-2540000Y+1631200D03*
X-2794000Y+1631200D03*
X-3048000Y+1631200D03*
X-3302000Y+1631200D03*
X-3556000Y+1631200D03*
X-3810000Y+1631200D03*
X-3810000Y+127000D03*
X-508000Y+127000D03*
X-1016000Y+1631200D03*
X-762000Y+127000D03*
X-762000Y+1631200D03*
X-508000Y+1631200D03*
X-254000Y+1631200D03*
X-254000Y+127000D03*
D23*
X-2413000Y+2667000D03*
D24*
X-2159000Y+2667000D03*
X-1905000Y+2667000D03*
X-1651000Y+2667000D03*
X-1397000Y+2667000D03*
X-1143000Y+2667000D03*
X-889000Y+2667000D03*
X-635000Y+2667000D03*
X-635000Y+3429000D03*
X-889000Y+3429000D03*
X-1143000Y+3429000D03*
X-1397000Y+3429000D03*
X-1651000Y+3429000D03*
X-1905000Y+3429000D03*
X-2159000Y+3429000D03*
X-2413000Y+3429000D03*
D25*
X-3791000Y+3048000D03*
X-3791000Y+2848000D03*
X-3991000Y+3048000D03*
X-3991000Y+2848000D03*
X-4191000Y+3048000D03*
X-4191000Y+2848000D03*
X-4391000Y+3048000D03*
X-4391000Y+2848000D03*
X-1089000Y-1397000D03*
X-889000Y-1397000D03*
X-689000Y-1397000D03*
X+1524000Y+1216000D03*
X+1524000Y+1016000D03*
X+1524000Y+816000D03*
X-3750000Y-750000D03*
X-3550000Y-750000D03*
D26*
X+1000000Y-1250000D03*
X+1396240Y-1250000D03*
X+1250000Y+3500000D03*
X+1250000Y+3103760D03*
X+1250000Y+2250000D03*
X+1250000Y+1853760D03*
D18*
X-5054600Y-1854200D02*
X+2019300Y-1854200D01*
X+2019300Y+3898900D01*
X-5054600Y+3898900D01*
X-5054600Y-1854200D01*
M02*
