G04 PROTEUS GERBER X2 FILE*
%TF.GenerationSoftware,Labcenter,Proteus,8.9-SP2-Build28501*%
%TF.CreationDate,2020-07-14T17:10:42+00:00*%
%TF.FileFunction,Copper,L2,Bot*%
%TF.FilePolarity,Positive*%
%TF.Part,Single*%
%TF.SameCoordinates,{7d90a529-71f2-4dae-951e-d5efde4002f7}*%
%FSLAX45Y45*%
%MOMM*%
G01*
%TA.AperFunction,Conductor*%
%ADD10C,0.762000*%
%ADD11C,1.016000*%
%TA.AperFunction,ViaPad*%
%ADD12C,0.762000*%
%TA.AperFunction,ComponentPad*%
%ADD13R,1.905000X1.905000*%
%TA.AperFunction,ComponentPad*%
%ADD14R,1.270000X1.270000*%
%ADD15C,1.270000*%
%TA.AperFunction,WasherPad*%
%ADD16C,1.397000*%
%TA.AperFunction,ComponentPad*%
%ADD17C,3.048000*%
%TA.AperFunction,Profile*%
%ADD18C,0.203200*%
%TD.AperFunction*%
D10*
X-4191000Y+3048000D02*
X-4191000Y+3238500D01*
X-4318000Y+3365500D01*
X-4572000Y+3365500D01*
X-4699000Y+3238500D01*
X-4699000Y+1016000D01*
X-3810000Y+127000D01*
X-3556000Y+1143000D02*
X-3556000Y+127000D01*
X-1016000Y+127000D02*
X-1016000Y-254000D01*
X-889000Y-381000D01*
X-889000Y-1397000D01*
X-381000Y+317500D02*
X-381000Y+952500D01*
X-762000Y+1333500D01*
X-762000Y+1631200D01*
X-762000Y+127000D02*
X-762000Y+279400D01*
X-723900Y+317500D01*
X-635000Y+317500D01*
X-4391000Y+3048000D02*
X-4572000Y+2867000D01*
X-4572000Y+1778000D01*
X-4425200Y+1631200D01*
X-3810000Y+1631200D01*
X-4191000Y+2848000D02*
X-4191000Y+2476500D01*
X-3556000Y+1841500D01*
X-3556000Y+1631200D01*
X-635000Y+444500D02*
X-3175000Y+444500D01*
X-3302000Y+571500D01*
X-3302000Y+1631200D01*
X-3991000Y+2848000D02*
X-3352421Y+2209421D01*
X-2921000Y+2209421D01*
X-2794000Y+2082421D01*
X-2794000Y+1631200D01*
X-3991000Y+3048000D02*
X-3800500Y+3238500D01*
X-2667000Y+3238500D01*
X-2540000Y+3111500D01*
X-2540000Y+1631200D01*
X-2159000Y+2667000D02*
X-2286000Y+2540000D01*
X-2286000Y+1631200D01*
X-2159000Y+3429000D02*
X-2032000Y+3302000D01*
X-2032000Y+1631200D01*
X-2413000Y+2667000D02*
X-2413000Y+3111500D01*
X-2286000Y+3238500D01*
X-2286000Y+3556000D01*
X-1778000Y+3556000D01*
X-1778000Y+1631200D01*
X-889000Y+3429000D02*
X-1524000Y+2794000D01*
X-1524000Y+1631200D01*
X-635000Y+3429000D02*
X-635000Y+2921000D01*
X-762000Y+2794000D01*
X-1270000Y+2794000D01*
X-1270000Y+1631200D01*
X-1905000Y+1841500D02*
X-1905000Y+2667000D01*
X-317500Y+2286000D02*
X-762000Y+2286000D01*
X-1143000Y+2667000D01*
D11*
X-1397000Y+3429000D02*
X-1206500Y+3619500D01*
X+628072Y+3619500D01*
X+755072Y+3492500D01*
X+755072Y+949928D01*
X+889000Y+816000D01*
X+1524000Y+816000D01*
X-508000Y+127000D02*
X-508000Y+825500D01*
X-1016000Y+1333500D01*
X-1016000Y+1631200D01*
X-508000Y+127000D02*
X-508000Y-1216000D01*
X-689000Y-1397000D01*
X+1524000Y+816000D02*
X+1524000Y+444500D01*
X+1396240Y+316740D01*
X+1396240Y-1250000D01*
X-1651000Y+2667000D02*
X-1651000Y+3429000D01*
X+0Y+127000D02*
X+0Y-250000D01*
X+1000000Y-1250000D01*
X+0Y+127000D02*
X+63500Y+190500D01*
X+63500Y+2540000D01*
X-63500Y+2667000D01*
X-635000Y+2667000D01*
X+0Y+127000D02*
X-254000Y+127000D01*
D12*
X-3556000Y+1143000D03*
X-381000Y+317500D03*
X-635000Y+317500D03*
X-635000Y+444500D03*
X-1905000Y+1841500D03*
X-317500Y+2286000D03*
D13*
X-3556000Y+127000D03*
X-1016000Y+127000D03*
X-3048000Y+127000D03*
X-2794000Y+127000D03*
X-2540000Y+127000D03*
X-2286000Y+127000D03*
X-2032000Y+127000D03*
X-1778000Y+127000D03*
X-1524000Y+127000D03*
X-1270000Y+127000D03*
X-3302000Y+127000D03*
X-1270000Y+1631200D03*
X-1524000Y+1631200D03*
X-1778000Y+1631200D03*
X-2032000Y+1631200D03*
X-2286000Y+1631200D03*
X-2540000Y+1631200D03*
X-2794000Y+1631200D03*
X-3048000Y+1631200D03*
X-3302000Y+1631200D03*
X-3556000Y+1631200D03*
X-3810000Y+1631200D03*
X-3810000Y+127000D03*
X-508000Y+127000D03*
X-1016000Y+1631200D03*
X-762000Y+127000D03*
X-762000Y+1631200D03*
X-508000Y+1631200D03*
X-254000Y+1631200D03*
X-254000Y+127000D03*
D14*
X-2413000Y+2667000D03*
D15*
X-2159000Y+2667000D03*
X-1905000Y+2667000D03*
X-1651000Y+2667000D03*
X-1397000Y+2667000D03*
X-1143000Y+2667000D03*
X-889000Y+2667000D03*
X-635000Y+2667000D03*
X-635000Y+3429000D03*
X-889000Y+3429000D03*
X-1143000Y+3429000D03*
X-1397000Y+3429000D03*
X-1651000Y+3429000D03*
X-1905000Y+3429000D03*
X-2159000Y+3429000D03*
X-2413000Y+3429000D03*
D16*
X-3791000Y+3048000D03*
X-3791000Y+2848000D03*
X-3991000Y+3048000D03*
X-3991000Y+2848000D03*
X-4191000Y+3048000D03*
X-4191000Y+2848000D03*
X-4391000Y+3048000D03*
X-4391000Y+2848000D03*
X-1089000Y-1397000D03*
X-889000Y-1397000D03*
X-689000Y-1397000D03*
X+1524000Y+1216000D03*
X+1524000Y+1016000D03*
X+1524000Y+816000D03*
X-3750000Y-750000D03*
X-3550000Y-750000D03*
D17*
X+1000000Y-1250000D03*
X+1396240Y-1250000D03*
X+1250000Y+3500000D03*
X+1250000Y+3103760D03*
X+1250000Y+2250000D03*
X+1250000Y+1853760D03*
D18*
X-5054600Y-1854200D02*
X+2019300Y-1854200D01*
X+2019300Y+3898900D01*
X-5054600Y+3898900D01*
X-5054600Y-1854200D01*
M02*
